<svg width="144" height="210" viewBox="0 0 144 210" fill="none" xmlns="http://www.w3.org/2000/svg">
<rect width="144" height="144" rx="72" fill="#28A9E0"/>
<path d="M62.8086 46.7187C61.118 46.6066 59.4564 46.9091 58 47.75C56.0581 48.8711 54.7649 50.7849 54.0703 52.9883C53.3757 55.1916 53.2152 57.7309 53.4688 60.5039C53.4944 60.7848 53.5438 61.0775 53.5781 61.3633C53.313 61.4766 53.0339 61.5808 52.7773 61.6992C50.2491 62.8661 48.1312 64.2733 46.5703 65.9765C45.0094 67.6798 44 69.7576 44 72C44 74.2423 45.0094 76.3202 46.5703 78.0234C48.1312 79.7266 50.2491 81.1339 52.7773 82.3008C53.0339 82.4192 53.313 82.5233 53.5781 82.6367C53.5438 82.9224 53.4944 83.2152 53.4688 83.4961C53.2152 86.2691 53.3757 88.8083 54.0703 91.0117C54.7649 93.2151 56.0581 95.1288 58 96.25C59.9419 97.3711 62.2445 97.5353 64.5 97.0351C66.7555 96.535 69.0339 95.4029 71.3086 93.7969C71.5389 93.6343 71.7698 93.4459 72 93.2734C72.2302 93.4459 72.4611 93.6343 72.6914 93.7969C74.9661 95.4029 77.2445 96.535 79.5 97.0351C81.7555 97.5353 84.0581 97.3711 86 96.25C87.9419 95.1288 89.2351 93.2151 89.9297 91.0117C90.6243 88.8083 90.7848 86.2691 90.5312 83.4961C90.5056 83.2152 90.4562 82.9224 90.4219 82.6367C90.687 82.5233 90.9661 82.4192 91.2227 82.3008C93.7509 81.1339 95.8688 79.7266 97.4297 78.0234C98.9906 76.3202 100 74.2423 100 72C100 69.7576 98.9906 67.6798 97.4297 65.9765C95.8688 64.2733 93.7509 62.8661 91.2227 61.6992C90.9661 61.5808 90.687 61.4766 90.4219 61.3633C90.4562 61.0775 90.5056 60.7848 90.5312 60.5039C90.7848 57.7309 90.6243 55.1916 89.9297 52.9883C89.2351 50.7849 87.9419 48.8711 86 47.75C84.0581 46.6288 81.7555 46.4647 79.5 46.9648C77.2445 47.465 74.9661 48.597 72.6914 50.2031C72.4611 50.3657 72.2302 50.5541 72 50.7265C71.7698 50.5541 71.5389 50.3657 71.3086 50.2031C69.0339 48.597 66.7555 47.465 64.5 46.9648C63.9361 46.8398 63.3721 46.7561 62.8086 46.7187ZM62.5469 50.7031C62.8877 50.7288 63.25 50.7853 63.6367 50.8711C65.1481 51.2062 66.9581 52.0545 68.8672 53.3828C67.2772 54.8911 65.7124 56.6071 64.2188 58.5273C61.8117 58.8607 59.5444 59.3544 57.4453 59.9765C57.2498 57.66 57.4175 55.6674 57.8828 54.1914C58.3592 52.6803 59.0722 51.7505 60 51.2148C60.6959 50.8131 61.5244 50.6261 62.5469 50.7031ZM81.4531 50.7031C82.4756 50.6261 83.3041 50.8131 84 51.2148C84.9278 51.7505 85.6408 52.6803 86.1172 54.1914C86.5825 55.6674 86.7502 57.66 86.5547 59.9765C84.4556 59.3544 82.1883 58.8607 79.7812 58.5273C78.2876 56.6071 76.7228 54.8911 75.1328 53.3828C77.0419 52.0545 78.8519 51.2062 80.3633 50.8711C80.75 50.7853 81.1123 50.7288 81.4531 50.7031ZM72 55.9179C72.703 56.5679 73.4047 57.2907 74.1055 58.0469C73.408 58.0222 72.711 58 72 58C71.289 58 70.592 58.0222 69.8945 58.0469C70.5953 57.2907 71.297 56.5679 72 55.9179ZM72 62C73.9291 62 75.7988 62.1134 77.5977 62.3047C78.6627 63.7669 79.6956 65.3294 80.6602 67C81.6248 68.6707 82.4615 70.3464 83.1953 72C82.4615 73.6536 81.6248 75.3292 80.6602 77C79.6956 78.6706 78.6627 80.233 77.5977 81.6953C75.7988 81.8865 73.9291 82 72 82C70.0709 82 68.2012 81.8865 66.4023 81.6953C65.3373 80.233 64.3044 78.6706 63.3398 77C62.3752 75.3292 61.5385 73.6536 60.8047 72C61.5385 70.3464 62.3752 68.6707 63.3398 67C64.3044 65.3294 65.3373 63.7669 66.4023 62.3047C68.2012 62.1134 70.0709 62 72 62ZM60.9688 63.1992C60.5987 63.7908 60.2305 64.3843 59.875 65C59.5195 65.6157 59.1906 66.2313 58.8633 66.8476C58.5592 65.8641 58.2854 64.8934 58.0742 63.9609C58.9882 63.6772 59.9639 63.4279 60.9688 63.1992ZM83.0312 63.1992C84.0361 63.4279 85.0118 63.6772 85.9258 63.9609C85.7146 64.8934 85.4408 65.8641 85.1367 66.8476C84.8094 66.2313 84.4805 65.6157 84.125 65C83.7695 64.3843 83.4013 63.7908 83.0312 63.1992ZM54.3086 65.4062C54.8197 67.537 55.5255 69.7468 56.4414 72C55.5255 74.2532 54.8197 76.463 54.3086 78.5937C52.2056 77.605 50.5648 76.4609 49.5195 75.3203C48.4491 74.1522 48 73.0714 48 72C48 70.9286 48.4491 69.8478 49.5195 68.6797C50.5648 67.5391 52.2056 66.395 54.3086 65.4062ZM89.6914 65.4062C91.7944 66.395 93.4352 67.5391 94.4805 68.6797C95.5509 69.8478 96 70.9286 96 72C96 73.0714 95.5509 74.1522 94.4805 75.3203C93.4352 76.4609 91.7944 77.605 89.6914 78.5937C89.1803 76.463 88.4745 74.2532 87.5586 72C88.4745 69.7468 89.1803 67.537 89.6914 65.4062ZM72 66C68.71 66 66 68.71 66 72C66 75.29 68.71 78 72 78C75.29 78 78 75.29 78 72C78 68.71 75.29 66 72 66ZM72 70C73.1283 70 74 70.8717 74 72C74 73.1282 73.1283 74 72 74C70.8717 74 70 73.1282 70 72C70 70.8717 70.8717 70 72 70ZM58.8633 77.1523C59.1906 77.7686 59.5195 78.3843 59.875 79C60.2305 79.6157 60.5987 80.2091 60.9688 80.8008C59.9639 80.572 58.9882 80.3228 58.0742 80.039C58.2854 79.1066 58.5592 78.1358 58.8633 77.1523ZM85.1367 77.1523C85.4408 78.1358 85.7146 79.1066 85.9258 80.039C85.0118 80.3228 84.0361 80.572 83.0312 80.8008C83.4013 80.2091 83.7695 79.6157 84.125 79C84.4805 78.3843 84.8094 77.7686 85.1367 77.1523ZM57.4453 84.0234C59.5444 84.6456 61.8117 85.1392 64.2188 85.4726C65.7124 87.3929 67.2772 89.1088 68.8672 90.6172C66.9581 91.9454 65.1481 92.7937 63.6367 93.1289C62.0899 93.4719 60.9278 93.3208 60 92.7851C59.0722 92.2494 58.3592 91.3197 57.8828 89.8086C57.4175 88.3326 57.2498 86.3399 57.4453 84.0234ZM86.5547 84.0234C86.7502 86.3399 86.5825 88.3326 86.1172 89.8086C85.6408 91.3197 84.9278 92.2494 84 92.7851C83.0722 93.3208 81.9101 93.4719 80.3633 93.1289C78.8519 92.7937 77.0419 91.9454 75.1328 90.6172C76.7228 89.1088 78.2876 87.3929 79.7812 85.4726C82.1883 85.1392 84.4556 84.6456 86.5547 84.0234ZM69.8945 85.9531C70.592 85.9778 71.289 86 72 86C72.711 86 73.408 85.9778 74.1055 85.9531C73.4047 86.7093 72.703 87.4321 72 88.082C71.297 87.4321 70.5953 86.7093 69.8945 85.9531Z" fill="white"/>
<path d="M30.24 201H26.688V178.664H35.04C37.1733 178.664 38.7947 179.261 39.904 180.456C41.0347 181.651 41.6 183.293 41.6 185.384C41.6 187.091 41.184 188.499 40.352 189.608C39.52 190.717 38.3253 191.4 36.768 191.656L41.92 201H37.952L33.216 191.976H30.24V201ZM34.528 189.096C36.7467 189.096 37.856 188.083 37.856 186.056V184.68C37.856 182.653 36.7467 181.64 34.528 181.64H30.24V189.096H34.528ZM45.9395 201V178.664H59.9235V181.672H49.5235V188.168H59.5395V191.176H49.5235V197.992H59.9235V201H45.9395ZM77.159 201L75.463 195.048H68.359L66.663 201H63.015L69.543 178.664H74.439L80.967 201H77.159ZM72.039 182.28H71.783L69.031 192.072H74.791L72.039 182.28ZM91.8025 201.384C88.9652 201.384 86.8532 200.381 85.4665 198.376C84.1012 196.371 83.4185 193.523 83.4185 189.832C83.4185 186.141 84.1012 183.293 85.4665 181.288C86.8532 179.283 88.9652 178.28 91.8025 178.28C92.8905 178.28 93.8292 178.429 94.6185 178.728C95.4292 179.005 96.1225 179.4 96.6985 179.912C97.2745 180.403 97.7545 180.989 98.1385 181.672C98.5438 182.333 98.8745 183.048 99.1305 183.816L95.8985 184.904C95.7278 184.392 95.5358 183.912 95.3225 183.464C95.1092 183.016 94.8425 182.632 94.5225 182.312C94.2025 181.992 93.8185 181.736 93.3705 181.544C92.9438 181.352 92.4105 181.256 91.7705 181.256C90.1918 181.256 89.0398 181.864 88.3145 183.08C87.5892 184.275 87.2265 185.896 87.2265 187.944V191.72C87.2265 193.768 87.5892 195.4 88.3145 196.616C89.0398 197.811 90.1918 198.408 91.7705 198.408C92.4105 198.408 92.9438 198.312 93.3705 198.12C93.8185 197.928 94.2025 197.672 94.5225 197.352C94.8425 197.032 95.1092 196.648 95.3225 196.2C95.5358 195.752 95.7278 195.272 95.8985 194.76L99.1305 195.848C98.8745 196.616 98.5438 197.341 98.1385 198.024C97.7545 198.685 97.2745 199.272 96.6985 199.784C96.1225 200.275 95.4292 200.669 94.6185 200.968C93.8292 201.245 92.8905 201.384 91.8025 201.384ZM112.142 181.672V201H108.558V181.672H101.55V178.664H119.15V181.672H112.142Z" fill="#28A9E0"/>
</svg>
