<svg width="144" height="210" viewBox="0 0 144 210" fill="none" xmlns="http://www.w3.org/2000/svg">
<rect width="144" height="144" rx="72" fill="#E54F26"/>
<path d="M50.4375 48L50.625 50.1875L54.125 89.75L54.25 91.125L55.5625 91.5L71.4375 95.9375L71.9375 96.0625L72.5 95.9375L88.375 91.5625L89.6875 91.1875L89.8125 89.8125L93.375 50.1875L93.5625 48.0625H91.375L52.625 48H50.4375ZM54.8125 52L89.1875 52.0625L85.9375 88.0625L72 91.9375L58 88.0625L54.8125 52ZM59.625 58L60.9375 72.9375H78.0625L77.5 79.375L72 80.875H71.9375L66.4375 79.375L66.125 75.25H61.125L61.8125 83.1875L71.9375 86H72L82.125 83.1875L83.5 68H65.4375L65 62.9375H83.9375L84.375 58H59.625Z" fill="white"/>
<path d="M46.812 191.176H39.388V201H35.804V178.664H39.388V188.168H46.812V178.664H50.396V201H46.812V191.176ZM64.0795 181.672V201H60.4955V181.672H53.4875V178.664H71.0875V181.672H64.0795ZM86.115 190.312L86.211 183.592H85.955L81.475 195.08L76.995 183.592H76.739L76.835 190.312V201H73.667V178.664H78.051L81.475 187.528H81.699L85.155 178.664H89.283V201H86.115V190.312ZM94.5185 201V178.664H98.1025V197.992H108.279V201H94.5185Z" fill="#E54F26"/>
</svg>
